<?xml version="1.0" encoding="iso-8859-1"?>
<!-- Generator: Adobe Illustrator 19.0.0, SVG Export Plug-In . SVG Version: 6.00 Build 0)  -->
<svg version="1.1" id="Layer_1" xmlns="http://www.w3.org/2000/svg" xmlns:xlink="http://www.w3.org/1999/xlink" x="0px" y="0px"
	 viewBox="0 0 512 512" style="enable-background:new 0 0 512 512;" xml:space="preserve">
<path style="fill:#757982;" d="M498.071,233.517H347.815c-9.017-1.558-15.248-10.128-13.69-19.255l7.902-47.303l16.695-100.171
	l8.793-52.868c1.336-8.014,8.348-13.913,16.473-13.913h77.91c8.125,0,15.137,5.899,16.473,13.913l8.793,52.868l16.695,100.171
	l7.902,47.303C513.319,223.389,507.087,231.959,498.071,233.517z"/>
<g>
	<polygon style="fill:#B8BFCC;" points="503.858,166.959 342.027,166.959 347.592,133.569 498.293,133.569 	"/>
	<polygon style="fill:#B8BFCC;" points="492.728,100.179 353.157,100.179 358.722,66.789 487.163,66.789 	"/>
</g>
<path style="fill:#A1A7B3;" d="M495.288,200.35H324.108l-68.116-68.116l-27.156-27.156c-10.463-10.462-28.494-3.005-28.494,11.798
	v59.88l-71.677-71.678c-10.463-10.462-28.494-3.116-28.494,11.798v59.88l-71.677-71.678C18.031,94.614,0,102.071,0,116.874V311.65
	h255.992h255.992v-94.606C511.983,207.807,504.527,200.35,495.288,200.35z"/>
<path style="fill:#979CA7;" d="M495.288,200.35H324.108l-68.116-68.116v179.418h255.992v-94.606
	C511.983,207.807,504.527,200.35,495.288,200.35z"/>
<path style="fill:#C4CAD9;" d="M0,278.26v217.036c0,9.222,7.478,16.695,16.695,16.695h478.593c9.217,0,16.695-7.473,16.695-16.695
	V278.26H0L0,278.26z"/>
<path style="fill:#B8BFCC;" d="M255.992,511.991h239.297c9.217,0,16.695-7.473,16.695-16.695V278.26H255.992V511.991z"/>
<path style="fill:#7F838C;" d="M329.673,44.528c-21.036,23.596-49.863,27.936-73.681,14.469c-6.457-3.45-12.577-8.348-18.031-14.469
	c-13.246-14.469-28.827-14.58-41.849,0c-6.12,6.901-16.695,7.457-23.596,1.336c-6.901-6.233-7.456-16.695-1.336-23.596
	c24.376-27.38,59.435-28.827,84.811-6.678c2.449,1.892,4.674,4.229,6.901,6.678c13.246,14.469,28.827,14.58,41.849,0
	c6.12-6.901,16.695-7.457,23.596-1.336C335.238,27.166,335.793,37.628,329.673,44.528z"/>
<path style="fill:#626873;" d="M445.203,511.991H333.902V361.736c0-9.22,7.475-16.695,16.695-16.695h77.911
	c9.22,0,16.695,7.475,16.695,16.695V511.991z"/>
<path style="fill:#7F838C;" d="M150.256,445.211h-66.78c-9.217,0-16.695-7.473-16.695-16.695v-66.78
	c0-9.222,7.478-16.695,16.695-16.695h66.78c9.217,0,16.695,7.473,16.695,16.695v66.78
	C166.951,437.738,159.473,445.211,150.256,445.211z"/>
<path style="fill:#57DEFF;" d="M100.171,411.821h33.39v-33.39h-33.39V411.821z"/>
<path style="fill:#7F838C;" d="M283.817,445.211h-66.78c-9.217,0-16.695-7.473-16.695-16.695v-66.78
	c0-9.222,7.478-16.695,16.695-16.695h66.78c9.217,0,16.695,7.473,16.695,16.695v66.78
	C300.512,437.738,293.034,445.211,283.817,445.211z"/>
<path style="fill:#757982;" d="M283.817,345.04h-27.825v100.171h27.825c9.217,0,16.695-7.473,16.695-16.695v-66.78
	C300.512,352.513,293.034,345.04,283.817,345.04z"/>
<path style="fill:#57DEFF;" d="M233.732,411.821h33.39v-33.39h-33.39V411.821z"/>
<rect x="255.992" y="378.434" style="fill:#4EC9E6;" width="11.13" height="33.39"/>
<path style="fill:#757982;" d="M329.673,44.528c-21.036,23.596-49.863,27.936-73.681,14.469V15.59
	c2.449,1.892,4.674,4.229,6.901,6.678c13.246,14.469,28.827,14.58,41.849,0c6.12-6.901,16.695-7.457,23.596-1.336
	C335.238,27.166,335.793,37.628,329.673,44.528z"/>
<g>
</g>
<g>
</g>
<g>
</g>
<g>
</g>
<g>
</g>
<g>
</g>
<g>
</g>
<g>
</g>
<g>
</g>
<g>
</g>
<g>
</g>
<g>
</g>
<g>
</g>
<g>
</g>
<g>
</g>
</svg>
